<?xml version="1.0" encoding="UTF-8" standalone="no"?>
<!-- Svg Vector Icons : http://www.onlinewebfonts.com/icon -->

<svg
   enable-background="new 0 0 1000 1000"
   fill="#f0fff0"
   version="1.1"
   viewBox="0 0 980 980"
   xml:space="preserve"
   id="svg463"
   sodipodi:docname="app.svg"
   inkscape:version="1.1.2 (b8e25be833, 2022-02-05)"
   xmlns:inkscape="http://www.inkscape.org/namespaces/inkscape"
   xmlns:sodipodi="http://sodipodi.sourceforge.net/DTD/sodipodi-0.dtd"
   xmlns="http://www.w3.org/2000/svg"
   xmlns:svg="http://www.w3.org/2000/svg"><defs
   id="defs467" /><sodipodi:namedview
   id="namedview465"
   pagecolor="#ffffff"
   bordercolor="#666666"
   borderopacity="1.0"
   inkscape:pageshadow="2"
   inkscape:pageopacity="0.0"
   inkscape:pagecheckerboard="0"
   showgrid="false"
   inkscape:zoom="0.53754546"
   inkscape:cx="1527.3127"
   inkscape:cy="763.65634"
   inkscape:window-width="2400"
   inkscape:window-height="1261"
   inkscape:window-x="1201"
   inkscape:window-y="-1359"
   inkscape:window-maximized="1"
   inkscape:current-layer="svg463"
   showguides="true"
   inkscape:guide-bbox="true" />
<metadata
   id="metadata457"> Svg Vector Icons : http://www.onlinewebfonts.com/icon </metadata>
<g
   transform="translate(-9.5975,-9.5976)"
   id="g461"
   style="fill:#000000"><path
     style="fill:#000000"
     d="M 530.89,10.598 A 490,490 0 0 0 10.6,468.308 490,490 0 0 0 468.31,988.598 490,490 0 0 0 988.6,530.898 l -77.342,-4.9492 a 412.5,412.5 0 0 1 -7.9395,58.316 412.5,412.5 0 0 1 -16.156,56.594 412.5,412.5 0 0 1 -24.049,53.717 412.5,412.5 0 0 1 -31.447,49.748 412.5,412.5 0 0 1 -38.207,44.768 412.5,412.5 0 0 1 -44.189,38.873 412.5,412.5 0 0 1 -49.273,32.189 412.5,412.5 0 0 1 -53.35,24.85 412.5,412.5 0 0 1 -56.346,17.004 412.5,412.5 0 0 1 -58.191,8.8125 412.5,412.5 0 0 1 -58.854,0.43946 412.5,412.5 0 0 1 -58.316,-7.9375 412.5,412.5 0 0 1 -56.594,-16.158 412.5,412.5 0 0 1 -53.717,-24.047 412.5,412.5 0 0 1 -49.748,-31.447 412.5,412.5 0 0 1 -44.768,-38.209 412.5,412.5 0 0 1 -38.875,-44.189 412.5,412.5 0 0 1 -32.188,-49.271 412.5,412.5 0 0 1 -24.85,-53.352 412.5,412.5 0 0 1 -17.006,-56.344 412.5,412.5 0 0 1 -8.8105,-58.191 412.5,412.5 0 0 1 -0.44141,-58.854 412.5,412.5 0 0 1 7.9395,-58.316 412.5,412.5 0 0 1 16.156,-56.594 412.5,412.5 0 0 1 24.047,-53.717 412.5,412.5 0 0 1 31.447,-49.75 412.5,412.5 0 0 1 38.207,-44.768 412.5,412.5 0 0 1 44.189,-38.873 412.5,412.5 0 0 1 49.271,-32.189 412.5,412.5 0 0 1 53.352,-24.85 412.5,412.5 0 0 1 56.346,-17.004 412.5,412.5 0 0 1 58.191,-8.8125 412.5,412.5 0 0 1 58.852,-0.44141 412.5,412.5 0 0 1 20.168,1.7871 412.5,412.5 0 0 1 20.055,2.7773 412.5,412.5 0 0 1 19.895,3.7559 412.5,412.5 0 0 1 19.688,4.7285 412.5,412.5 0 0 1 19.432,5.6875 412.5,412.5 0 0 1 19.127,6.6348 412.5,412.5 0 0 1 18.781,7.5664 412.5,412.5 0 0 1 18.385,8.4785 412.5,412.5 0 0 1 17.949,9.3691 412.5,412.5 0 0 1 17.465,10.238 412.5,412.5 0 0 1 16.943,11.084 412.5,412.5 0 0 1 16.379,11.902 412.5,412.5 0 0 1 15.775,12.691 412.5,412.5 0 0 1 15.133,13.451 412.5,412.5 0 0 1 14.455,14.176 412.5,412.5 0 0 1 13.742,14.869 412.5,412.5 0 0 1 12.996,15.523 412.5,412.5 0 0 1 12.219,16.145 412.5,412.5 0 0 1 11.412,16.725 412.5,412.5 0 0 1 10.576,17.264 412.5,412.5 0 0 1 9.7168,17.762 412.5,412.5 0 0 1 8.8359,18.217 412.5,412.5 0 0 1 7.9297,18.631 412.5,412.5 0 0 1 7.0059,18.994 412.5,412.5 0 0 1 6.0644,19.316 412.5,412.5 0 0 1 5.1113,19.592 412.5,412.5 0 0 1 4.1426,19.818 412.5,412.5 0 0 1 3.166,19.996 412.5,412.5 0 0 1 2.1797,20.129 412.5,412.5 0 0 1 1.1914,20.213 412.5,412.5 0 0 1 0.19531,20.244 412.5,412.5 0 0 1 -0.79492,20.23 l 77.342,4.9492 a 490,490 0 0 0 -457.71,-520.29 z"
     id="path459" /></g>
<text
   xml:space="preserve"
   style="font-weight:bold;font-size:400px;line-height:1.25;font-family:Asap;-inkscape-font-specification:'Asap Bold';fill:#000000"
   x="149.95973"
   y="625.12402"
   id="text5357"><tspan
     sodipodi:role="line"
     id="tspan5355"
     x="149.95973"
     y="625.12402">APP</tspan></text></svg>
