<?xml version="1.0" encoding="UTF-8"?>
<!-- Svg Vector Icons : http://www.onlinewebfonts.com/icon -->
<svg enable-background="new 0 0 1000 1000" fill="#f0fff0" version="1.1" viewBox="0 0 980 980" xml:space="preserve" xmlns="http://www.w3.org/2000/svg">
<metadata> Svg Vector Icons : http://www.onlinewebfonts.com/icon </metadata>

<g aria-label="APP"><path d="m674.76 625.92q-24 0-24-12.8v-252q0-8.4 3.6-12 4-4 12.4-4h84q37.6 0 66.4 18.4 28.8 18 28.8 69.2 0 35.2-16.8 54.8-16.8 19.2-37.6 26t-36.8 6.8h-42.4v92.8q0 12.8-24 12.8zm73.2-158.4q14.4 0 24.4-7.6 10.4-7.6 10.4-27.2t-10.4-27.2q-10-8-24.4-8h-35.6v70zm-301.2 158.4q-24 0-24-12.8v-252q0-8.4 3.6-12 4-4 12.4-4h84q37.6 0 66.4 18.4 28.8 18 28.8 69.2 0 35.2-16.8 54.8-16.8 19.2-37.6 26t-36.8 6.8h-42.4v92.8q0 12.8-24 12.8zm73.2-158.4q14.4 0 24.4-7.6 10.4-7.6 10.4-27.2t-10.4-27.2q-10-8-24.4-8h-35.6v70zm-345.6 158.4q-24.4 0-24.4-8.8 0-1.6 1.6-7.2l88-257.2q3.2-8.4 22.8-8.4h20.8q20 0 22.8 8.4l88 257.2q1.2 4 1.2 7.2 0 8.8-20 8.8h-17.6q-19.6 0-22.4-8.4l-16-48.8h-94.4l-16 48.8q-2.8 8.4-18.4 8.4zm127.6-110-22.8-71.2q-2.8-8-6-25.6h-1.6q-0.4 2.4-2 10.8-1.2 8-4 14.8l-23.6 71.2zm219.33-514.92a490 490 0 0 0-520.29 457.71 490 490 0 0 0 457.71 520.29 490 490 0 0 0 520.29-457.7l-77.342-4.9492a412.5 412.5 0 0 1-7.9395 58.316 412.5 412.5 0 0 1-16.156 56.594 412.5 412.5 0 0 1-24.049 53.717 412.5 412.5 0 0 1-31.447 49.748 412.5 412.5 0 0 1-38.207 44.768 412.5 412.5 0 0 1-44.189 38.873 412.5 412.5 0 0 1-49.273 32.189 412.5 412.5 0 0 1-53.35 24.85 412.5 412.5 0 0 1-56.346 17.004 412.5 412.5 0 0 1-58.191 8.8125 412.5 412.5 0 0 1-58.854 0.43946 412.5 412.5 0 0 1-58.316-7.9375 412.5 412.5 0 0 1-56.594-16.158 412.5 412.5 0 0 1-53.717-24.047 412.5 412.5 0 0 1-49.748-31.447 412.5 412.5 0 0 1-44.768-38.209 412.5 412.5 0 0 1-38.875-44.189 412.5 412.5 0 0 1-32.188-49.271 412.5 412.5 0 0 1-24.85-53.352 412.5 412.5 0 0 1-17.006-56.344 412.5 412.5 0 0 1-8.8105-58.191 412.5 412.5 0 0 1-0.44141-58.854 412.5 412.5 0 0 1 7.9395-58.316 412.5 412.5 0 0 1 16.156-56.594 412.5 412.5 0 0 1 24.047-53.717 412.5 412.5 0 0 1 31.447-49.75 412.5 412.5 0 0 1 38.207-44.768 412.5 412.5 0 0 1 44.189-38.873 412.5 412.5 0 0 1 49.271-32.189 412.5 412.5 0 0 1 53.352-24.85 412.5 412.5 0 0 1 56.346-17.004 412.5 412.5 0 0 1 58.191-8.8125 412.5 412.5 0 0 1 58.852-0.44141 412.5 412.5 0 0 1 20.168 1.7871 412.5 412.5 0 0 1 20.055 2.7773 412.5 412.5 0 0 1 19.895 3.7559 412.5 412.5 0 0 1 19.688 4.7285 412.5 412.5 0 0 1 19.432 5.6875 412.5 412.5 0 0 1 19.127 6.6348 412.5 412.5 0 0 1 18.781 7.5664 412.5 412.5 0 0 1 18.385 8.4785 412.5 412.5 0 0 1 17.949 9.3691 412.5 412.5 0 0 1 17.465 10.238 412.5 412.5 0 0 1 16.943 11.084 412.5 412.5 0 0 1 16.379 11.902 412.5 412.5 0 0 1 15.775 12.691 412.5 412.5 0 0 1 15.133 13.451 412.5 412.5 0 0 1 14.455 14.176 412.5 412.5 0 0 1 13.742 14.869 412.5 412.5 0 0 1 12.996 15.523 412.5 412.5 0 0 1 12.219 16.145 412.5 412.5 0 0 1 11.412 16.725 412.5 412.5 0 0 1 10.576 17.264 412.5 412.5 0 0 1 9.7168 17.762 412.5 412.5 0 0 1 8.8359 18.217 412.5 412.5 0 0 1 7.9297 18.631 412.5 412.5 0 0 1 7.0059 18.994 412.5 412.5 0 0 1 6.0644 19.316 412.5 412.5 0 0 1 5.1113 19.592 412.5 412.5 0 0 1 4.1426 19.818 412.5 412.5 0 0 1 3.166 19.996 412.5 412.5 0 0 1 2.1797 20.129 412.5 412.5 0 0 1 1.1914 20.213 412.5 412.5 0 0 1 0.19531 20.244 412.5 412.5 0 0 1-0.79492 20.23l77.342 4.9492a490 490 0 0 0-457.71-520.29z"/></g></svg>
