<?xml version="1.0" encoding="UTF-8"?>
<!-- Svg Vector Icons : http://www.onlinewebfonts.com/icon -->
<!DOCTYPE svg PUBLIC "-//W3C//DTD SVG 1.1//EN" "http://www.w3.org/Graphics/SVG/1.1/DTD/svg11.dtd">
<svg enable-background="new 0 0 1000 1000" fill="#f0fff0" version="1.1" viewBox="0 0 980 980" xml:space="preserve" xmlns="http://www.w3.org/2000/svg">
<metadata> Svg Vector Icons : http://www.onlinewebfonts.com/icon </metadata>
<g transform="translate(-9.5975 -9.5976)"><path d="m530.89 10.598a490 490 0 0 0-520.29 457.71 490 490 0 0 0 457.71 520.29 490 490 0 0 0 520.29-457.7l-77.342-4.9492a412.5 412.5 0 0 1-7.9395 58.316 412.5 412.5 0 0 1-16.156 56.594 412.5 412.5 0 0 1-24.049 53.717 412.5 412.5 0 0 1-31.447 49.748 412.5 412.5 0 0 1-38.207 44.768 412.5 412.5 0 0 1-44.189 38.873 412.5 412.5 0 0 1-49.273 32.189 412.5 412.5 0 0 1-53.35 24.85 412.5 412.5 0 0 1-56.346 17.004 412.5 412.5 0 0 1-58.191 8.8125 412.5 412.5 0 0 1-58.854 0.43946 412.5 412.5 0 0 1-58.316-7.9375 412.5 412.5 0 0 1-56.594-16.158 412.5 412.5 0 0 1-53.717-24.047 412.5 412.5 0 0 1-49.748-31.447 412.5 412.5 0 0 1-44.768-38.209 412.5 412.5 0 0 1-38.875-44.189 412.5 412.5 0 0 1-32.188-49.271 412.5 412.5 0 0 1-24.85-53.352 412.5 412.5 0 0 1-17.006-56.344 412.5 412.5 0 0 1-8.8105-58.191 412.5 412.5 0 0 1-0.44141-58.854 412.5 412.5 0 0 1 7.9395-58.316 412.5 412.5 0 0 1 16.156-56.594 412.5 412.5 0 0 1 24.047-53.717 412.5 412.5 0 0 1 31.447-49.75 412.5 412.5 0 0 1 38.207-44.768 412.5 412.5 0 0 1 44.189-38.873 412.5 412.5 0 0 1 49.271-32.189 412.5 412.5 0 0 1 53.352-24.85 412.5 412.5 0 0 1 56.346-17.004 412.5 412.5 0 0 1 58.191-8.8125 412.5 412.5 0 0 1 58.852-0.44141 412.5 412.5 0 0 1 20.168 1.7871 412.5 412.5 0 0 1 20.055 2.7773 412.5 412.5 0 0 1 19.895 3.7559 412.5 412.5 0 0 1 19.688 4.7285 412.5 412.5 0 0 1 19.432 5.6875 412.5 412.5 0 0 1 19.127 6.6348 412.5 412.5 0 0 1 18.781 7.5664 412.5 412.5 0 0 1 18.385 8.4785 412.5 412.5 0 0 1 17.949 9.3691 412.5 412.5 0 0 1 17.465 10.238 412.5 412.5 0 0 1 16.943 11.084 412.5 412.5 0 0 1 16.379 11.902 412.5 412.5 0 0 1 15.775 12.691 412.5 412.5 0 0 1 15.133 13.451 412.5 412.5 0 0 1 14.455 14.176 412.5 412.5 0 0 1 13.742 14.869 412.5 412.5 0 0 1 12.996 15.523 412.5 412.5 0 0 1 12.219 16.145 412.5 412.5 0 0 1 11.412 16.725 412.5 412.5 0 0 1 10.576 17.264 412.5 412.5 0 0 1 9.7168 17.762 412.5 412.5 0 0 1 8.8359 18.217 412.5 412.5 0 0 1 7.9297 18.631 412.5 412.5 0 0 1 7.0059 18.994 412.5 412.5 0 0 1 6.0644 19.316 412.5 412.5 0 0 1 5.1113 19.592 412.5 412.5 0 0 1 4.1426 19.818 412.5 412.5 0 0 1 3.166 19.996 412.5 412.5 0 0 1 2.1797 20.129 412.5 412.5 0 0 1 1.1914 20.213 412.5 412.5 0 0 1 0.19531 20.244 412.5 412.5 0 0 1-0.79492 20.23l77.342 4.9492a490 490 0 0 0-457.71-520.29zm-290.97 269.46c-28.69 0-52.059 24.13-52.059 53.77v327.94c0 29.735 23.369 53.77 52.059 53.77h518.04c28.785 0 52.059-24.035 52.059-53.77v-327.94c0-29.64-23.274-53.77-52.059-53.77zm12.445 38.475h493.24l-206.62 189.14c-18.05 16.625-31.349 24.889-39.994 24.889-8.6451 0-21.946-8.2637-39.996-24.889zm-25.744 34.959 161.31 146.11-161.31 150.19zm544.63 0v296.3l-161.31-150.19zm-355.59 175.09 26.506 24.033c15.39 13.965 34.39 21.092 56.715 21.092 22.42 0 41.326-7.2218 56.811-21.092l26.6-24.033 161.88 148.48h-490.49z" /></g>
</svg>
