<?xml version="1.0" encoding="UTF-8"?>
<!-- Created with Inkscape (http://www.inkscape.org/) -->
<svg width="217.77mm" height="35.297mm" version="1.1" viewBox="0 0 217.77 35.297" xmlns="http://www.w3.org/2000/svg">
 <g transform="translate(124.83,-81.617)">
  <g font-family="Asap" font-size="16.933px" font-weight="bold" stroke-width=".26458">
   <g aria-label="D">
    <path d="m83.896 116.91q-0.35559 0-0.52492-0.1524-0.1524-0.16933-0.1524-0.52492v-10.498q0-0.3556 0.1524-0.50799 0.16933-0.16933 0.52492-0.16933h3.6237q2.6246 0 4.0131 1.5409 1.4054 1.524 1.4054 4.3856 0 2.8617-1.4054 4.4026-1.3885 1.524-4.0131 1.524zm3.6237-2.2182q1.3546 0 2.0489-0.94824 0.69425-0.94825 0.69425-2.7601t-0.69425-2.7601q-0.69425-0.94825-2.0489-0.94825h-1.6764v7.4166zm-27.948 2.1978q-0.35559 0-0.52492-0.15239-0.1524-0.16933-0.1524-0.52493v-10.498q0-0.35559 0.1524-0.50799 0.16933-0.16933 0.52492-0.16933h5.9435q0.27093 0 0.38946 0.2032 0.11853 0.20319 0.11853 0.64345v0.52493q0 0.44025-0.11853 0.64345t-0.38946 0.2032h-4.0131v2.4553h3.5559q0.27093 0 0.38946 0.2032 0.11853 0.20319 0.11853 0.64345v0.52492q0 0.44026-0.11853 0.64346-0.11853 0.20319-0.38946 0.20319h-3.5559v2.7432h4.0301q0.27093 0 0.38946 0.2032 0.11853 0.20319 0.11853 0.64345v0.52492q0 0.44026-0.11853 0.64346-0.11853 0.20319-0.38946 0.20319zm-25.376 0.028q-1.016 0-1.016-0.54186v-10.668q0-0.35559 0.1524-0.50799 0.16933-0.16933 0.52492-0.16933h3.3019q4.2163 0 4.2163 3.1834 0 0.94824-0.54186 1.6594-0.52492 0.69425-1.4393 1.0329v0.0677q0.32173 0.11854 0.66039 0.57573 0.33866 0.44025 0.55879 0.98211l1.4901 3.7253q0.08467 0.22013 0.08467 0.32173 0 0.15239-0.254 0.25399-0.254 0.0847-0.76198 0.0847h-0.69425q-0.82972 0-0.98211-0.3556l-1.3377-3.3019q-0.28786-0.55879-0.62652-0.77892-0.32173-0.23706-1.0837-0.23706h-0.66039v4.1316q0 0.54186-1.016 0.54186zm3.2003-6.9256q0.52492 0 0.91438-0.42332 0.38946-0.42333 0.38946-1.0329 0-0.59265-0.38946-0.93131-0.37253-0.3556-1.0329-0.3556h-1.4901v2.7432zm-30.677 6.8976q-0.35559 0-0.52492-0.15239-0.1524-0.16933-0.1524-0.52493v-10.498q0-0.35559 0.1524-0.50799 0.16933-0.16933 0.52492-0.16933h3.6237q2.6246 0 4.0131 1.5409 1.4054 1.524 1.4054 4.3856 0 2.8617-1.4054 4.4026-1.3885 1.524-4.0131 1.524zm3.6237-2.2182q1.3546 0 2.0489-0.94825t0.69425-2.7601-0.69425-2.7601q-0.69425-0.94824-2.0489-0.94824h-1.6764v7.4166zm-24.391 2.2416q-0.35559 0-0.52492-0.1524-0.1524-0.16933-0.1524-0.52492v-10.668q0-0.54186 1.016-0.54186h0.57572q1.016 0 1.016 0.54186v9.1269h3.6575q0.27093 0 0.38946 0.20319 0.11853 0.2032 0.11853 0.64346v0.52492q0 0.44026-0.11853 0.64345-0.11853 0.2032-0.38946 0.2032zm-27.953-7e-3q-1.0329 0-1.0329-0.37253 0-0.0677 0.06773-0.30479l3.7253-10.888q0.13546-0.35559 0.96518-0.35559h0.88052q0.84665 0 0.96518 0.35559l3.7253 10.888q0.0508 0.16933 0.0508 0.30479 0 0.37253-0.84665 0.37253h-0.74505q-0.82972 0-0.94825-0.35559l-0.67732-2.0658h-3.9962l-0.67732 2.0658q-0.11853 0.35559-0.77892 0.35559zm5.4016-4.6566-0.96518-3.0141q-0.11853-0.33866-0.254-1.0837h-0.06773q-0.01693 0.1016-0.08467 0.45719-0.0508 0.33866-0.16933 0.62652l-0.99905 3.0141zm-17.509-30.629h0.77793v35.248h-0.77793zm-35.109 35.296q-3.0555 0-3.0555-1.102 0-0.20036 0.20036-0.90162l11.02-32.208q0.40072-1.0519 2.8551-1.0519h2.6047q2.5045 0 2.8551 1.0519l11.02 32.208q0.15027 0.5009 0.15027 0.90162 0 1.102-2.5045 1.102h-2.204q-2.4544 0-2.805-1.0519l-2.0036-6.111h-11.821l-2.0036 6.111q-0.35063 1.0519-2.3041 1.0519zm15.979-13.775-2.8551-8.916q-0.35063-1.0018-0.75135-3.2058h-0.20036q-0.05009 0.30054-0.25045 1.3524-0.15027 1.0018-0.5009 1.8533l-2.9553 8.916zm-48.587 13.775q-3.0054 0-3.0054-1.6029v-32.058q0-1.6029 3.0054-1.6029h2.1539q1.2022 0 2.0036 0.30054 0.80144 0.25045 1.3023 1.0519l11.27 17.381q1.0018 1.4526 1.8032 2.9553l0.20036-0.0501q-0.10018-1.1521-0.10018-3.4061v-16.63q0-1.6029 3.0054-1.6029h1.4526q3.0054 0 3.0054 1.6029v32.058q0 1.6029-3.0054 1.6029h-1.9034q-1.2022 0-2.0036-0.25045-0.80144-0.30054-1.3023-1.102l-11.521-17.632q-1.0018-1.4526-1.8032-2.9553l-0.20036 0.05009q0.10018 1.1521 0.10018 3.4061v16.88q0 1.6029-3.0054 1.6029zm156.03-23.209q-1.016 0-1.016-0.54186v-10.837q0-0.54186 1.016-0.54186h0.59266q1.016 0 1.016 0.54186v4.538l0.06773 0.01693 2.9463-4.7751q0.18626-0.32173 1.016-0.32173h0.79585q0.94825 0 0.94825 0.254 0 0.1524-0.13546 0.35559l-3.2681 5.0122 3.7083 5.6895q0.13546 0.2032 0.13546 0.35559 0 0.254-0.94825 0.254h-0.98211q-0.84665 0-1.0329-0.32173l-3.1834-5.1476-0.06773 0.01693v4.9106q0 0.54186-1.016 0.54186zm-22.589 0.1016q-2.8447 0-4.2163-1.4732-1.3546-1.4901-1.3546-4.6227 0-6.0281 5.6556-6.0281 0.84665 0 1.7272 0.18626 0.88052 0.16933 1.3716 0.45719 0.44026 0.254 0.44026 0.54186 0 0.23706-0.18626 0.62652-0.18626 0.37253-0.45719 0.67732-0.254 0.28786-0.45719 0.28786-0.0508 0-0.40639-0.1524-0.35559-0.1524-0.86358-0.27093t-1.2192-0.11853q-1.4901 0-2.2182 0.94825-0.71119 0.94825-0.71119 2.8617 0 3.8607 2.8955 3.8607 0.76198 0 1.3208-0.1524t1.0837-0.38946q0.27093-0.13546 0.37253-0.13546 0.254 0 0.47412 0.28786 0.23706 0.28786 0.37253 0.66039 0.1524 0.35559 0.1524 0.52492 0 0.44026-0.59266 0.77892-0.55879 0.32173-1.4732 0.49106-0.91438 0.1524-1.7102 0.1524zm-25.281-0.08467q-1.016 0-1.016-0.55879v-10.837q0-0.55879 1.016-0.55879h0.59266q1.016 0 1.016 0.55879v10.837q0 0.55879-1.016 0.55879zm-28.346-0.01693q-1.016 0-1.016-0.54186v-10.837q0-0.54186 1.016-0.54186h0.72812q0.40639 0 0.67732 0.1016 0.27093 0.08467 0.44026 0.35559l3.8099 5.8758q0.33866 0.49106 0.60959 0.99905l0.06773-0.01693q-0.03387-0.38946-0.03387-1.1514v-5.6218q0-0.54186 1.016-0.54186h0.49106q1.016 0 1.016 0.54186v10.837q0 0.54186-1.016 0.54186h-0.64345q-0.40639 0-0.67732-0.08467-0.27093-0.1016-0.44026-0.37253l-3.8946-5.9604q-0.33866-0.49106-0.60959-0.99905l-0.06773 0.01693q0.03387 0.38946 0.03387 1.1514v5.7064q0 0.54186-1.016 0.54186z"/>
   </g>
  </g>
 </g>
</svg>
